<svg xmlns:xlink="http://www.w3.org/1999/xlink" xmlns="http://www.w3.org/2000/svg" viewBox="0 0 395.52 247.2" height="247.2" width="395.52"><g><svg></svg></g><g><svg viewBox="0 0 395.52 247.2" height="247.2" width="395.52"><g transform="matrix(1,0,0,1,75.54432,70.20261979594909)"><svg viewBox="0 0 244.43135999999998 106.7947604081018" height="106.7947604081018" width="244.43135999999998"><g><svg viewBox="0 0 351.40665475272 153.533448" height="106.7947604081018" width="244.43135999999998"><g><rect width="4.331627065805272" height="153.533448" x="124.76814696117162" y="0" fill="#FFFAFE" opacity="1" stroke-width="0px" stroke="#000000" fill-opacity="1" class="rect-borderrectangle-0" data-fill-palette-color="primary" rx="1%" id="borderrectangle-0" data-palette-color="#fffafe" stroke-opacity="0"></rect></g><g transform="matrix(1,0,0,1,140.43911189557707,0.38192399999999793)"><svg viewBox="0 0 210.96754285714286 152.7696" height="152.7696" width="210.96754285714286"><g id="textblocktransform"><svg viewBox="0 0 210.96754285714286 152.7696" height="152.7696" width="210.96754285714286" id="textblock"><g><svg viewBox="0 0 210.96754285714286 152.7696" height="152.7696" width="210.96754285714286"><g transform="matrix(1,0,0,1,0,0)"><svg width="210.96754285714286" viewBox="0.5499973297119141 -41.099998474121094 218.94998168945312 159.50001525878906" height="152.7696" data-palette-color="#fffafe"><svg></svg><svg></svg><svg></svg><g class="wordmark-text-0" data-fill-palette-color="primary" id="text-0"><path xmlns="http://www.w3.org/2000/svg" d="M11.9-37.15c0.667 0 1.733-0.067 3.2-0.2v0c1.733-0.133 3.05-0.2 3.95-0.2v0c4.9 0 8.483 1.367 10.75 4.1 2.267 2.733 3.4 6.55 3.4 11.45v0c0 4.233-0.8 8.073-2.4 11.52-1.6 3.453-3.85 6.153-6.75 8.1-2.9 1.953-6.233 2.88-10 2.78v0c-1.733-0.133-2.633-0.2-2.7-0.2v0c-1.467-0.133-3.183-0.2-5.15-0.2v0h-5.65l0.15-1.75 3.7-0.6 4.1-32.3-3.35-0.5 0.2-2zM8.4-2.65c0.933 0.2 2.05 0.357 3.35 0.47 1.3 0.12 2.383 0.18 3.25 0.18v0c3.067-0.133 5.667-1.15 7.8-3.05 2.133-1.9 3.727-4.333 4.78-7.3 1.047-2.967 1.57-6.133 1.57-9.5v0c0-4.733-0.867-8.143-2.6-10.23-1.733-2.08-4.583-3.12-8.55-3.12v0c-1.433 0-3.283 0.15-5.55 0.45v0zM43.05-3.95c-0.033 0.133-0.05 0.333-0.05 0.6v0c0 0.367 0.077 0.65 0.23 0.85 0.147 0.2 0.32 0.3 0.52 0.3v0c0.667 0 1.533-0.55 2.6-1.65v0l0.65 1.1c-0.433 0.667-1.133 1.373-2.1 2.12-0.967 0.753-2.033 1.13-3.2 1.13v0c-0.9 0-1.607-0.233-2.12-0.7-0.52-0.467-0.747-1.217-0.68-2.25v0c0.067-0.867 0.293-2.617 0.68-5.25 0.38-2.633 0.67-4.617 0.87-5.95v0l1.6-10.95-3.25-1.05 0.3-1.6 6.35-1.05 1 0.5zM45.05-34.1c-0.6 0-1.123-0.223-1.57-0.67-0.453-0.453-0.68-1.03-0.68-1.73v0c0-0.867 0.31-1.617 0.93-2.25 0.613-0.633 1.27-0.95 1.97-0.95v0c0.7 0 1.26 0.217 1.68 0.65 0.413 0.433 0.62 1 0.62 1.7v0c0 0.9-0.29 1.667-0.87 2.3-0.587 0.633-1.28 0.95-2.08 0.95zM60.3-21.6c1.433-1.967 3.127-3.593 5.08-4.88 1.947-1.28 3.87-1.92 5.77-1.92v0c1.8 0 3.183 0.557 4.15 1.67 0.967 1.12 1.45 2.963 1.45 5.53v0c0 1.467-0.35 3.983-1.05 7.55v0l-0.25 1.3c-0.033 0.267-0.117 0.7-0.25 1.3v0c-0.6 3.5-0.95 5.883-1.05 7.15v0c-0.067 1.133 0.133 1.7 0.6 1.7v0c0.667 0 1.45-0.433 2.35-1.3v0l0.65 1.15c-0.333 0.5-0.983 1.1-1.95 1.8-0.967 0.7-2.017 1.05-3.15 1.05v0c-1.767 0-2.65-0.933-2.65-2.8v0c0-0.733 0.1-1.717 0.3-2.95 0.2-1.233 0.417-2.45 0.65-3.65v0l0.45-2.25 0.3-1.55c0.367-2.033 0.633-3.633 0.8-4.8 0.167-1.167 0.25-2.3 0.25-3.4v0c0-1.633-0.25-2.76-0.75-3.38-0.5-0.613-1.367-0.92-2.6-0.92v0c-1.433 0-3.057 0.69-4.87 2.07-1.82 1.387-3.363 3.047-4.63 4.98v0l-2.45 18.15h-3.9l3.25-24.4-2.4-1.15 0.35-1.8 5.25-1.05 0.95 0.5zM103.3-4.3c-0.033 0.167-0.05 0.367-0.05 0.6v0c0 0.533 0.11 0.917 0.33 1.15 0.213 0.233 0.437 0.35 0.67 0.35v0c0.333 0 0.66-0.11 0.98-0.33 0.313-0.213 0.72-0.57 1.22-1.07v0l0.7 1.1c-0.133 0.267-0.44 0.64-0.92 1.12-0.487 0.487-1.08 0.92-1.78 1.3-0.7 0.387-1.433 0.58-2.2 0.58v0c-2.067 0-3.033-1.1-2.9-3.3v0l0.3-2.05c-1.133 1.467-2.457 2.727-3.97 3.78-1.52 1.047-3.097 1.57-4.73 1.57v0c-2.633 0-4.59-0.95-5.87-2.85-1.287-1.9-1.93-4.467-1.93-7.7v0c0-2.7 0.633-5.477 1.9-8.33 1.267-2.847 3.093-5.23 5.48-7.15 2.38-1.913 5.153-2.87 8.32-2.87v0c0.7 0 1.517 0.083 2.45 0.25 0.933 0.167 1.767 0.367 2.5 0.6v0l2.75-0.8zM102.2-24.85c-1.067-0.733-2.367-1.1-3.9-1.1v0c-2.3 0-4.283 0.79-5.95 2.37-1.667 1.587-2.933 3.58-3.8 5.98-0.867 2.4-1.3 4.767-1.3 7.1v0c0 2.567 0.377 4.557 1.13 5.97 0.747 1.42 1.887 2.13 3.42 2.13v0c1.5 0 2.993-0.59 4.48-1.77 1.48-1.187 2.72-2.497 3.72-3.93v0zM98.65-40.5l3.8-0.6 4.8 7.1-1.3 1.5-5.2-5.15-7.35 4.9-1.65-0.5zM119.75-21.6c1.433-1.967 3.127-3.593 5.08-4.88 1.947-1.28 3.853-1.92 5.72-1.92v0c1.767 0 3.11 0.517 4.03 1.55 0.913 1.033 1.403 2.667 1.47 4.9v0c1.3-1.867 2.827-3.41 4.58-4.63 1.747-1.213 3.503-1.82 5.27-1.82v0c1.767 0 3.16 0.583 4.18 1.75 1.013 1.167 1.52 3 1.52 5.5v0c0 0.767-0.09 1.767-0.27 3-0.187 1.233-0.38 2.45-0.58 3.65v0l-0.35 2.15-0.2 1.1c-0.6 3.6-0.95 6.05-1.05 7.35v0l-0.05 0.6c0 0.733 0.2 1.1 0.6 1.1v0c0.4 0 0.817-0.127 1.25-0.38 0.433-0.247 0.95-0.67 1.55-1.27v0l0.6 1.1c-0.4 0.633-1.1 1.333-2.1 2.1-1 0.767-2.1 1.15-3.3 1.15v0c-0.867 0-1.517-0.227-1.95-0.68-0.433-0.447-0.65-1.137-0.65-2.07v0c0-0.733 0.093-1.717 0.28-2.95 0.18-1.233 0.37-2.433 0.57-3.6v0l0.4-2.45 0.3-1.7c0.633-3.533 0.95-6.183 0.95-7.95v0c0-1.6-0.25-2.71-0.75-3.33-0.5-0.613-1.317-0.92-2.45-0.92v0c-1.267 0-2.673 0.6-4.22 1.8-1.553 1.2-2.963 2.7-4.23 4.5v0c-0.167 1.633-0.45 3.8-0.85 6.5v0l-1.65 12.35h-4l1.6-11.15c0.333-2.1 0.6-3.927 0.8-5.48 0.2-1.547 0.3-2.97 0.3-4.27v0c-0.033-1.667-0.273-2.8-0.72-3.4-0.453-0.6-1.313-0.9-2.58-0.9v0c-1.433 0-3.057 0.683-4.87 2.05-1.82 1.367-3.363 3.017-4.63 4.95v0l-2.45 18.2h-3.9l3.25-24.4-2.4-1.15 0.35-1.8 5.25-1.05 0.95 0.5zM164.3-3.95c-0.033 0.133-0.05 0.333-0.05 0.6v0c0 0.367 0.077 0.65 0.23 0.85 0.147 0.2 0.32 0.3 0.52 0.3v0c0.667 0 1.533-0.55 2.6-1.65v0l0.65 1.1c-0.433 0.667-1.133 1.373-2.1 2.12-0.967 0.753-2.033 1.13-3.2 1.13v0c-0.9 0-1.607-0.233-2.12-0.7-0.52-0.467-0.747-1.217-0.68-2.25v0c0.067-0.867 0.293-2.617 0.68-5.25 0.38-2.633 0.67-4.617 0.87-5.95v0l1.6-10.95-3.25-1.05 0.3-1.6 6.35-1.05 1 0.5zM166.3-34.1c-0.6 0-1.123-0.223-1.57-0.67-0.453-0.453-0.68-1.03-0.68-1.73v0c0-0.867 0.31-1.617 0.93-2.25 0.613-0.633 1.27-0.95 1.97-0.95v0c0.7 0 1.26 0.217 1.68 0.65 0.413 0.433 0.62 1 0.62 1.7v0c0 0.9-0.29 1.667-0.87 2.3-0.587 0.633-1.28 0.95-2.08 0.95zM191.45-23.6c-0.733-0.533-1.507-0.977-2.32-1.33-0.82-0.347-1.597-0.52-2.33-0.52v0c-1.867 0-3.5 0.607-4.9 1.82-1.4 1.22-2.473 2.913-3.22 5.08-0.753 2.167-1.13 4.667-1.13 7.5v0c0 2.867 0.51 5.033 1.53 6.5 1.013 1.467 2.437 2.2 4.27 2.2v0c1.367 0 2.56-0.25 3.58-0.75 1.013-0.5 2.17-1.267 3.47-2.3v0l0.8 1.65c-0.867 1.067-2.057 2.04-3.57 2.92-1.52 0.887-3.33 1.33-5.43 1.33v0c-2.767 0-4.923-0.993-6.47-2.98-1.553-1.98-2.33-4.703-2.33-8.17v0c0-2.667 0.567-5.377 1.7-8.13 1.133-2.747 2.783-5.037 4.95-6.87 2.167-1.833 4.717-2.75 7.65-2.75v0c0.933 0 1.91 0.107 2.93 0.32 1.013 0.22 1.853 0.513 2.52 0.88v0l-1.15 4zM215.65-4.3c-0.033 0.167-0.05 0.367-0.05 0.6v0c0 0.533 0.11 0.917 0.33 1.15 0.213 0.233 0.437 0.35 0.67 0.35v0c0.333 0 0.66-0.11 0.98-0.33 0.313-0.213 0.72-0.57 1.22-1.07v0l0.7 1.1c-0.133 0.267-0.44 0.64-0.92 1.12-0.487 0.487-1.08 0.92-1.78 1.3-0.7 0.387-1.433 0.58-2.2 0.58v0c-2.067 0-3.033-1.1-2.9-3.3v0l0.3-2.05c-1.133 1.467-2.457 2.727-3.97 3.78-1.52 1.047-3.097 1.57-4.73 1.57v0c-2.633 0-4.59-0.95-5.87-2.85-1.287-1.9-1.93-4.467-1.93-7.7v0c0-2.7 0.633-5.477 1.9-8.33 1.267-2.847 3.093-5.23 5.48-7.15 2.38-1.913 5.153-2.87 8.32-2.87v0c0.7 0 1.517 0.083 2.45 0.25 0.933 0.167 1.767 0.367 2.5 0.6v0l2.75-0.8zM214.55-24.85c-1.067-0.733-2.367-1.1-3.9-1.1v0c-2.3 0-4.283 0.79-5.95 2.37-1.667 1.587-2.933 3.58-3.8 5.98-0.867 2.4-1.3 4.767-1.3 7.1v0c0 2.567 0.373 4.557 1.12 5.97 0.753 1.42 1.897 2.13 3.43 2.13v0c1.5 0 2.993-0.59 4.48-1.77 1.48-1.187 2.72-2.497 3.72-3.93v0z" fill="#FFFAFE" fill-rule="nonzero" stroke="none" stroke-width="1" stroke-linecap="butt" stroke-linejoin="miter" stroke-miterlimit="10" stroke-dasharray="" stroke-dashoffset="0" font-family="none" font-weight="none" font-size="none" text-anchor="none" style="mix-blend-mode: normal" data-fill-palette-color="primary" opacity="1"></path><path xmlns="http://www.w3.org/2000/svg" d="M22.3 48.9c-0.033 0.133-0.05 0.333-0.05 0.6v0c0 0.367 0.06 0.65 0.18 0.85 0.113 0.2 0.27 0.3 0.47 0.3v0c0.6 0 1.383-0.433 2.35-1.3v0l0.65 1.1c-0.367 0.567-1.007 1.19-1.92 1.87-0.92 0.687-1.947 1.03-3.08 1.03v0c-1.8 0-2.65-1.017-2.55-3.05v0-1.35c-0.933 1.233-2.117 2.273-3.55 3.12-1.433 0.853-2.983 1.28-4.65 1.28v0c-2.667 0-4.69-0.96-6.07-2.88-1.387-1.913-2.08-4.47-2.08-7.67v0c0-2.7 0.633-5.477 1.9-8.33 1.267-2.847 3.093-5.23 5.48-7.15 2.38-1.913 5.153-2.87 8.32-2.87v0c1.233 0 2.617 0.217 4.15 0.65v0l1.45-9.2-3.2-0.8 0.4-1.7 6-0.85 1.05 0.6zM21.4 28.2c-1-0.867-2.433-1.3-4.3-1.3v0c-2.333 0-4.333 0.823-6 2.47-1.667 1.653-2.917 3.687-3.75 6.1-0.833 2.42-1.25 4.763-1.25 7.03v0c0 2.5 0.417 4.45 1.25 5.85 0.833 1.4 2.017 2.1 3.55 2.1v0c1.6 0 3.117-0.5 4.55-1.5 1.433-1 2.533-2.117 3.3-3.35v0zM44.95 24.45c3.133 0 5.533 1.017 7.2 3.05 1.667 2.033 2.5 4.883 2.5 8.55v0c0 2.933-0.59 5.723-1.77 8.37-1.187 2.653-2.84 4.803-4.96 6.45-2.113 1.653-4.503 2.48-7.17 2.48v0c-3.067 0-5.45-0.977-7.15-2.93-1.7-1.947-2.583-4.703-2.65-8.27v0c-0.033-3 0.55-5.86 1.75-8.58 1.2-2.713 2.867-4.913 5-6.6 2.133-1.68 4.55-2.52 7.25-2.52zM44.25 26.9c-1.933 0-3.59 0.75-4.97 2.25-1.387 1.5-2.43 3.4-3.13 5.7-0.7 2.3-1.05 4.617-1.05 6.95v0c0 2.933 0.55 5.183 1.65 6.75 1.1 1.567 2.683 2.35 4.75 2.35v0c1.867 0 3.483-0.74 4.85-2.22 1.367-1.487 2.4-3.363 3.1-5.63 0.7-2.267 1.05-4.55 1.05-6.85v0c0-3-0.517-5.3-1.55-6.9-1.033-1.6-2.6-2.4-4.7-2.4z" fill="#FFFAFE" fill-rule="nonzero" stroke="none" stroke-width="1" stroke-linecap="butt" stroke-linejoin="miter" stroke-miterlimit="10" stroke-dasharray="" stroke-dashoffset="0" font-family="none" font-weight="none" font-size="none" text-anchor="none" style="mix-blend-mode: normal" data-fill-palette-color="primary" opacity="1"></path><path xmlns="http://www.w3.org/2000/svg" d="M5.35 68.55h22.7l-0.2 7.65h-2.2l-0.85-5.2-12.25-0.3-1.85 14.45 11.7-0.2-0.25 3.2-11.7-0.35-2.05 15.5 14.9-0.45 2.75-5.7 2.15 0.65-2.15 7.9h-25.5l0.15-1.75 3.75-0.55 4.05-32.35-3.4-0.5zM39.95 84.1c1.433-1.967 3.127-3.593 5.08-4.88 1.947-1.28 3.853-1.92 5.72-1.92v0c1.767 0 3.11 0.517 4.03 1.55 0.913 1.033 1.403 2.667 1.47 4.9v0c1.3-1.867 2.827-3.41 4.58-4.63 1.747-1.213 3.503-1.82 5.27-1.82v0c1.767 0 3.16 0.583 4.18 1.75 1.013 1.167 1.52 3 1.52 5.5v0c0 0.767-0.09 1.767-0.27 3-0.187 1.233-0.38 2.45-0.58 3.65v0l-0.35 2.15-0.2 1.1c-0.6 3.6-0.95 6.05-1.05 7.35v0l-0.05 0.6c0 0.733 0.2 1.1 0.6 1.1v0c0.4 0 0.817-0.127 1.25-0.38 0.433-0.247 0.95-0.67 1.55-1.27v0l0.6 1.1c-0.4 0.633-1.1 1.333-2.1 2.1-1 0.767-2.1 1.15-3.3 1.15v0c-0.867 0-1.517-0.227-1.95-0.68-0.433-0.447-0.65-1.137-0.65-2.07v0c0-0.733 0.093-1.717 0.28-2.95 0.18-1.233 0.37-2.433 0.57-3.6v0l0.4-2.45 0.3-1.7c0.633-3.533 0.95-6.183 0.95-7.95v0c0-1.6-0.25-2.71-0.75-3.33-0.5-0.613-1.317-0.92-2.45-0.92v0c-1.267 0-2.673 0.6-4.22 1.8-1.553 1.2-2.963 2.7-4.23 4.5v0c-0.167 1.633-0.45 3.8-0.85 6.5v0l-1.65 12.35h-4l1.6-11.15c0.333-2.1 0.6-3.927 0.8-5.48 0.2-1.547 0.3-2.97 0.3-4.27v0c-0.033-1.667-0.273-2.8-0.72-3.4-0.453-0.6-1.313-0.9-2.58-0.9v0c-1.433 0-3.057 0.683-4.87 2.05-1.82 1.367-3.363 3.017-4.63 4.95v0l-2.45 18.2h-3.9l3.25-24.4-2.4-1.15 0.35-1.8 5.25-1.05 0.95 0.5zM86.1 81.8c0.933-1.267 2.083-2.333 3.45-3.2 1.367-0.867 2.883-1.3 4.55-1.3v0c2.733 0 4.81 0.957 6.23 2.87 1.413 1.92 2.12 4.497 2.12 7.73v0c0 2.7-0.633 5.477-1.9 8.33-1.267 2.847-3.083 5.22-5.45 7.12-2.367 1.9-5.1 2.85-8.2 2.85v0c-0.967 0-2.283-0.2-3.95-0.6v0l-1.75 12.8h-3.8l5.05-37.45-2.65-1 0.35-1.6 5.5-1.05 0.95 0.5zM83.35 102.6c1 0.767 2.383 1.15 4.15 1.15v0c2.233 0 4.167-0.8 5.8-2.4 1.633-1.6 2.877-3.61 3.73-6.03 0.847-2.413 1.27-4.803 1.27-7.17v0c0-2.533-0.443-4.493-1.33-5.88-0.88-1.38-2.087-2.07-3.62-2.07v0c-1.533 0-2.983 0.49-4.35 1.47-1.367 0.987-2.433 2.097-3.2 3.33v0zM114.35 84.35c0.433-1 1.117-2.043 2.05-3.13 0.933-1.08 2.04-1.997 3.32-2.75 1.287-0.747 2.647-1.12 4.08-1.12v0c0.8 0 1.333 0.1 1.6 0.3v0l-0.9 4.35c-0.467-0.267-1.233-0.4-2.3-0.4v0c-1.533 0-3.083 0.583-4.65 1.75-1.567 1.167-2.783 2.8-3.65 4.9v0l-2.15 17.45h-3.9l3.15-24.3-2.55-1.15 0.35-1.8 5.25-1.05 0.95 0.45-0.35 4.45zM147.05 101.1c-0.867 1.2-2.24 2.35-4.12 3.45-1.887 1.1-3.93 1.65-6.13 1.65v0c-2.2 0-4.017-0.5-5.45-1.5-1.433-1-2.49-2.31-3.17-3.93-0.687-1.613-1.03-3.37-1.03-5.27v0c0-3.133 0.633-6.1 1.9-8.9 1.267-2.8 2.99-5.05 5.17-6.75 2.187-1.7 4.613-2.55 7.28-2.55v0c2.267 0 3.983 0.567 5.15 1.7 1.167 1.133 1.75 2.6 1.75 4.4v0c0 2.367-1 4.36-3 5.98-2 1.613-4.35 2.827-7.05 3.64-2.7 0.82-5.033 1.247-7 1.28v0c-0.033 0.233-0.05 0.617-0.05 1.15v0c0 2.133 0.5 3.983 1.5 5.55 1 1.567 2.533 2.35 4.6 2.35v0c1.433 0 2.917-0.333 4.45-1 1.533-0.667 2.95-1.65 4.25-2.95v0zM140.6 79.65c-1.7 0-3.217 0.65-4.55 1.95-1.333 1.3-2.39 2.907-3.17 4.82-0.787 1.92-1.263 3.797-1.43 5.63v0c1.9-0.067 3.857-0.443 5.87-1.13 2.02-0.68 3.713-1.637 5.08-2.87 1.367-1.233 2.05-2.667 2.05-4.3v0c-0.033-1.333-0.383-2.35-1.05-3.05-0.667-0.7-1.6-1.05-2.8-1.05zM171.9 107.6c-0.333 2.433-1.207 4.433-2.62 6-1.42 1.567-3.063 2.71-4.93 3.43-1.867 0.713-3.7 1.07-5.5 1.07v0c-1 0-2.017-0.083-3.05-0.25-1.033-0.167-1.817-0.367-2.35-0.6v0l0.95-3.7c0.8 0.367 1.75 0.693 2.85 0.98 1.1 0.28 2.233 0.42 3.4 0.42v0c2.267 0 3.95-0.44 5.05-1.32 1.1-0.887 1.817-2.463 2.15-4.73v0l1.05-7c-0.967 1.2-2.15 2.217-3.55 3.05-1.4 0.833-2.917 1.25-4.55 1.25v0c-2.667 0-4.693-0.96-6.08-2.88-1.38-1.913-2.07-4.47-2.07-7.67v0c0-2.7 0.633-5.477 1.9-8.33 1.267-2.847 3.1-5.23 5.5-7.15 2.4-1.913 5.183-2.87 8.35-2.87v0c1.767 0 3.533 0.35 5.3 1.05v0l2.85-1.05zM172 81c-1.033-0.833-2.433-1.25-4.2-1.25v0c-2.333 0-4.333 0.823-6 2.47-1.667 1.653-2.923 3.687-3.77 6.1-0.853 2.42-1.28 4.763-1.28 7.03v0c0 2.5 0.417 4.45 1.25 5.85 0.833 1.4 2.017 2.1 3.55 2.1v0c1.6 0 3.11-0.493 4.53-1.48 1.413-0.98 2.52-2.087 3.32-3.32v0zM194.95 77.3c3.133 0 5.533 1.017 7.2 3.05 1.667 2.033 2.5 4.883 2.5 8.55v0c0 2.933-0.59 5.723-1.77 8.37-1.187 2.653-2.837 4.803-4.95 6.45-2.12 1.653-4.513 2.48-7.18 2.48v0c-3.067 0-5.45-0.977-7.15-2.93-1.7-1.947-2.583-4.703-2.65-8.27v0c-0.033-3 0.55-5.86 1.75-8.58 1.2-2.713 2.867-4.913 5-6.6 2.133-1.68 4.55-2.52 7.25-2.52zM194.25 79.75c-1.933 0-3.59 0.75-4.97 2.25-1.387 1.5-2.43 3.4-3.13 5.7-0.7 2.3-1.05 4.617-1.05 6.95v0c0 2.933 0.55 5.183 1.65 6.75 1.1 1.567 2.683 2.35 4.75 2.35v0c1.867 0 3.483-0.74 4.85-2.22 1.367-1.487 2.4-3.363 3.1-5.63 0.7-2.267 1.05-4.55 1.05-6.85v0c0-3-0.517-5.3-1.55-6.9-1.033-1.6-2.6-2.4-4.7-2.4z" fill="#FFFAFE" fill-rule="nonzero" stroke="none" stroke-width="1" stroke-linecap="butt" stroke-linejoin="miter" stroke-miterlimit="10" stroke-dasharray="" stroke-dashoffset="0" font-family="none" font-weight="none" font-size="none" text-anchor="none" style="mix-blend-mode: normal" data-fill-palette-color="primary" opacity="1"></path></g></svg></g></svg></g></svg></g></svg></g><g transform="matrix(1,0,0,1,0,21.71461064157885)"><svg viewBox="0 0 113.42880909257144 110.10422671684229" height="110.10422671684229" width="113.42880909257144"><g><svg xmlns="http://www.w3.org/2000/svg" xmlns:xlink="http://www.w3.org/1999/xlink" version="1.1" x="0" y="0" viewBox="10.600000381469727 11.69999885559082 78.72708892822266 76.41960906982422" style="enable-background:new 0 0 100 100;" xml:space="preserve" height="110.10422671684229" width="113.42880909257144" class="icon-icon-0" data-fill-palette-color="accent" id="icon-0"><g fill="#FFFAFE" data-fill-palette-color="accent"><path class="" d="M27.2 56.1c2.3 2.4 5.2 4.2 8.5 5.3V40.3c0-0.5-0.4-0.9-0.9-0.9h-6.6c-0.5 0-0.9 0.4-0.9 0.9V56.1z" fill="#FFFAFE" data-fill-palette-color="accent"></path><path class="" d="M38.5 62.2c1.4 0.3 2.8 0.4 4.2 0.4s2.9-0.1 4.2-0.4V47.5c0-0.5-0.4-0.9-0.9-0.9h-6.6c-0.5 0-0.9 0.4-0.9 0.9V62.2z" fill="#FFFAFE" data-fill-palette-color="accent"></path><path class="" d="M49.8 61.4c3.3-1.1 6.2-3 8.5-5.3V32.9c0-0.5-0.4-0.9-0.9-0.9h-6.6c-0.5 0-0.9 0.4-0.9 0.9V61.4z" fill="#FFFAFE" data-fill-palette-color="accent"></path><path class="" d="M86.5 74.7l-17.7-14c3.8-5.1 6.1-11.3 6.1-18.1 0-17.1-14.4-30.9-32.1-30.9S10.6 25.6 10.6 42.7 25 73.6 42.7 73.6c7 0 13.4-2.1 18.7-5.8L76 85.4c0.3 0.4 0.7 0.8 1.1 1.1 3.3 2.6 8 2 10.6-1.3S89.7 77.3 86.5 74.7zM58.3 59.8c-2.2 1.8-4.8 3.3-7.7 4.2-2.5 0.8-5.1 1.3-7.9 1.3-2.5 0-4.9-0.4-7.1-1-3.2-0.9-6-2.5-8.5-4.5-5-4.2-8.2-10.3-8.2-17.1 0-12.5 10.7-22.6 23.8-22.6s23.8 10.1 23.8 22.6C66.5 49.5 63.3 55.7 58.3 59.8z" fill="#FFFAFE" data-fill-palette-color="accent"></path></g></svg></g></svg></g></svg></g></svg></g><g><path d="M0 123.6c0-68.262 55.338-123.6 123.6-123.6 47.567 0 88.858 26.87 109.523 66.259l-1.705 0c-20.533-38.528-61.113-64.752-107.818-64.753-67.43 0-122.094 54.663-122.094 122.094 0 67.43 54.663 122.094 122.094 122.093 46.705 0 87.285-26.225 107.818-64.752h1.705c-20.665 39.389-61.956 66.259-109.523 66.259-68.262 0-123.6-55.338-123.6-123.6z" fill="#FFFAFE" stroke="#000000" data-fill-palette-color="tertiary" stroke-opacity="0"></path></g></svg></g><defs></defs></svg>