<svg xmlns:xlink="http://www.w3.org/1999/xlink" xmlns="http://www.w3.org/2000/svg" viewBox="0 0 131.4209650176 127.56903509261727" height="127.56903509261727" width="131.4209650176"><g><svg xmlns="http://www.w3.org/2000/svg" xmlns:xlink="http://www.w3.org/1999/xlink" version="1.1" x="0" y="0" viewBox="10.600000381469727 11.69999885559082 78.72708892822266 76.41960906982422" style="enable-background:new 0 0 100 100;" xml:space="preserve" height="127.56903509261727" width="131.4209650176" class="icon-icon-0" data-fill-palette-color="accent" id="icon-0"><g fill="#FFFAFE" data-fill-palette-color="accent"><path class="" d="M27.2 56.1c2.3 2.4 5.2 4.2 8.5 5.3V40.3c0-0.5-0.4-0.9-0.9-0.9h-6.6c-0.5 0-0.9 0.4-0.9 0.9V56.1z" fill="#FFFAFE" data-fill-palette-color="accent"></path><path class="" d="M38.5 62.2c1.4 0.3 2.8 0.4 4.2 0.4s2.9-0.1 4.2-0.4V47.5c0-0.5-0.4-0.9-0.9-0.9h-6.6c-0.5 0-0.9 0.4-0.9 0.9V62.2z" fill="#FFFAFE" data-fill-palette-color="accent"></path><path class="" d="M49.8 61.4c3.3-1.1 6.2-3 8.5-5.3V32.9c0-0.5-0.4-0.9-0.9-0.9h-6.6c-0.5 0-0.9 0.4-0.9 0.9V61.4z" fill="#FFFAFE" data-fill-palette-color="accent"></path><path class="" d="M86.5 74.7l-17.7-14c3.8-5.1 6.1-11.3 6.1-18.1 0-17.1-14.4-30.9-32.1-30.9S10.6 25.6 10.6 42.7 25 73.6 42.7 73.6c7 0 13.4-2.1 18.7-5.8L76 85.4c0.3 0.4 0.7 0.8 1.1 1.1 3.3 2.6 8 2 10.6-1.3S89.7 77.3 86.5 74.7zM58.3 59.8c-2.2 1.8-4.8 3.3-7.7 4.2-2.5 0.8-5.1 1.3-7.9 1.3-2.5 0-4.9-0.4-7.1-1-3.2-0.9-6-2.5-8.5-4.5-5-4.2-8.2-10.3-8.2-17.1 0-12.5 10.7-22.6 23.8-22.6s23.8 10.1 23.8 22.6C66.5 49.5 63.3 55.7 58.3 59.8z" fill="#FFFAFE" data-fill-palette-color="accent"></path></g></svg></g></svg>